<?xml version="1.0" standalone="no"?>
<!DOCTYPE svg PUBLIC "-//W3C//DTD SVG 20010904//EN"
 "http://www.w3.org/TR/2001/REC-SVG-20010904/DTD/svg10.dtd">
<svg version="1.0" xmlns="http://www.w3.org/2000/svg"
 width="500.000000pt" height="500.000000pt" viewBox="0 0 500.000000 500.000000"
 preserveAspectRatio="xMidYMid meet">
<metadata>
Created by potrace 1.14, written by Peter Selinger 2001-2017
</metadata>
<g transform="translate(0.000000,500.000000) scale(0.100000,-0.100000)"
fill="#000000" stroke="none">
<path d="M1460 4658 l0 -343 -388 0 -387 0 0 -375 c-1 -206 -4 -380 -7 -385
-4 -7 -127 -10 -342 -10 l-336 0 2 -1045 3 -1045 330 -1 c182 -1 335 -2 341
-3 7 -1 10 -119 10 -383 l0 -383 384 0 385 -1 3 -342 2 -342 1045 0 1045 0 0
343 0 342 382 0 383 0 2 373 c1 204 3 378 3 385 0 9 73 12 340 12 l340 0 -2
1045 -3 1045 -337 0 -336 0 0 378 c0 208 -3 381 -7 385 -3 4 -174 8 -378 9
-205 1 -375 2 -379 2 -5 1 -8 154 -8 341 l0 340 -1045 0 -1045 0 0 -342z"/>
</g>
</svg>
