<?xml version="1.0" encoding="utf-8"?>
<!-- Generator: Adobe Illustrator 26.0.0, SVG Export Plug-In . SVG Version: 6.00 Build 0)  -->
<svg version="1.1" id="Capa_1" xmlns="http://www.w3.org/2000/svg" xmlns:xlink="http://www.w3.org/1999/xlink" x="0px" y="0px"
	 viewBox="0 0 500 500" style="enable-background:new 0 0 500 500;" xml:space="preserve">
<style type="text/css">
	.st0{fill:#020203;}
	.st1{fill:none;}
	.st2{fill:#FFF6DF;}
	.st3{fill:#FEDDAD;}
	.st4{fill:#EC6562;}
	.st5{fill:#DC3862;}
	.st6{fill:#FBCA3D;}
	.st7{fill:#FFDF70;}
	.st8{fill:#F9C155;}
</style>
<path class="st0" d="M39.94,108.75"/>
<path class="st1" d="M516,418.38"/>
<path class="st1" d="M-10.85,282.33"/>
<path class="st0" d="M27.94,161.65"/>
<polygon class="st2" points="251,0 146.1,0 146.1,68.35 68.38,68.35 68.38,145.44 0,145.44 0,354.49 68.63,354.49 68.63,431.64 
	146.09,431.64 146.15,500 251,500 "/>
<polygon class="st3" points="251,0 355.07,0 355.07,68.35 432.16,68.35 432.16,145.44 500,145.44 500,354.49 431.91,354.49 
	431.91,431.64 355.07,431.64 355.01,500 251,500 "/>
<path class="st0" d="M245.96,103.05"/>
<rect x="140.6" y="139.16" transform="matrix(-1 -4.537982e-11 4.537982e-11 -1 391.1172 500.4883)" class="st4" width="109.91" height="222.17"/>
<rect x="251.49" y="139.16" class="st5" width="109.91" height="222.17"/>
<polygon class="st5" points="251,96.68 398.05,252.2 251,409.18 "/>
<polygon class="st4" points="251,96.68 103.95,252.2 251,409.18 "/>
<path class="st6" d="M251.01,177.25c-0.17,0-0.33,0.01-0.5,0.01v145.48c0.17,0,0.33,0.01,0.5,0.01c41.09,0,74.4-32.57,74.4-72.75
	S292.1,177.25,251.01,177.25z"/>
<path class="st7" d="M250.51,177.25c0.16,0,0.33,0.01,0.49,0.01v145.48c-0.16,0-0.33,0.01-0.49,0.01
	c-40.29,0-72.95-32.57-72.95-72.75S210.22,177.25,250.51,177.25z"/>
<path class="st8" d="M79.68,75.41"/>
</svg>
